<?xml version="1.0" encoding="UTF-8"?>
<svg id="Layer_1" data-name="Layer 1" xmlns="http://www.w3.org/2000/svg" width="512" height="512" viewBox="0 0 512 512">
  <defs>
    <style>
      .cls-1 {
        fill: #fff;
        stroke-width: 0px;
      }
    </style>
  </defs>
  <g id="helicopter_bomb_airplane_fighter_intercepter_jet_plane" data-name="helicopter, bomb, airplane, fighter, intercepter, jet plane">
    <path class="cls-1" d="M255.48,487.88c2.2-.06,4.32-1.88,4.7-4.04l6.98-39.06c.39-2.17,2.5-3.94,4.7-3.94h38.92c2.2,0,5.6.68,7.56,1.51s3.08-.22,2.5-2.34l-3.63-13.22c-.58-2.12-2.86-3.86-5.06-3.86h-38.94c-2.2,0-3.94-1.8-3.86-4l.56-16.19c.08-2.2,1.94-4,4.14-4h36.74c2.2,0,4-1.8,4-4v-9.76c0-2.2-1.8-4-4-4h-36.14c-2.2,0-3.94-1.8-3.86-4l2.45-70.08c.08-2.2.65-5.72,1.28-7.83l18.27-61.34c.63-2.11,2.44-2.58,4.02-1.06l114.34,110.25c1.58,1.53,2.88.98,2.88-1.22v-8.78c0-2.2-1.25-5.3-2.77-6.89l-111.84-116.74c-1.52-1.59-.99-3.15,1.19-3.47l39.03-5.78c2.18-.32,3.96-2.39,3.96-4.59v-16.72c0-2.2-1.65-4.71-3.67-5.58l-38.16-16.41c-2.02-.87-2.42-2.87-.89-4.45l110.38-113.98c1.53-1.58,2.78-4.67,2.78-6.87v-6.67c0-2.2-.32-4.17-.72-4.38s-2.01.88-3.58,2.42l-110.22,107.56c-1.57,1.54-3.13,1.01-3.45-1.16l-8.43-57.01c-.32-2.18-2.39-3.96-4.59-3.96h-.39c-2.2,0-4.68-1.67-5.51-3.7,0,0-12.01-29.4-22.15-29.4s-22.13,29.4-22.13,29.4c-.83,2.04-3.31,3.7-5.51,3.7h-.32c-2.2,0-4.26,1.78-4.58,3.96l-8.42,57.01c-.32,2.18-1.87,2.7-3.45,1.16L100.82,27.32c-1.58-1.54-2.86-.99-2.86,1.21v8.86c0,2.2,1.25,5.29,2.78,6.87l108.48,112.01c1.53,1.58,1.13,3.58-.89,4.45l-38.14,16.41c-2.02.87-3.67,3.38-3.67,5.58v16.72c0,2.2,1.78,4.26,3.96,4.59l39.02,5.78c2.18.32,2.71,1.89,1.19,3.47l-109.96,114.78c-1.52,1.59-2.77,4.69-2.77,6.89v8.93c0,2.2,1.3,2.75,2.88,1.22l112.37-108.42c1.58-1.53,3.39-1.05,4.02,1.05l18.35,61.34c.63,2.11,1.21,5.63,1.29,7.83l2.57,70.08c.08,2.2-1.65,4-3.85,4h-37.42c-2.2,0-4,1.8-4,4v9.76c0,2.2,1.8,4,4,4h38.11c2.2,0,4.07,1.8,4.15,4l.61,16.34c.08,2.2-1.65,4-3.85,4h-39.01c-2.2,0-4.47,1.74-5.04,3.86l-3.59,13.29c-.57,2.12.56,3.18,2.51,2.35s5.35-1.51,7.55-1.51h39.02c2.2,0,4.31,1.77,4.7,3.94l6.91,39.06c.38,2.17,2.5,3.89,4.7,3.83h.56Z"/>
  </g>
</svg>